<svg width="24" height="24" viewBox="0 0 24 24" fill="none" xmlns="http://www.w3.org/2000/svg">
<path id="Attendance" d="M20.6633 21.6V14.5888L22.9535 13.0144C23.5042 12.6358 23.8704 12.0694 23.9716 11.4399C24.0729 10.8104 23.9008 10.1693 23.4934 9.6576L22.2045 8.04C21.8296 7.56808 21.2811 7.24065 20.6633 7.12V6.4C20.6633 6.18784 20.5725 5.98439 20.4111 5.8344L14.3843 0.2344C14.2228 0.0843605 14.0039 4.53099e-05 13.7756 0H2.58292C1.89788 0 1.24091 0.252856 0.756519 0.702944C0.272128 1.15303 0 1.76348 0 2.4V21.6C0 22.2365 0.272128 22.847 0.756519 23.2971C1.24091 23.7471 1.89788 24 2.58292 24H18.0804C18.7655 24 19.4224 23.7471 19.9068 23.2971C20.3912 22.847 20.6633 22.2365 20.6633 21.6ZM1.72194 21.6V2.4C1.72194 2.18783 1.81265 1.98434 1.97412 1.83431C2.13558 1.68429 2.35457 1.6 2.58292 1.6H12.9146V6.0056C12.9146 6.6656 13.4906 7.2 14.2 7.2H18.9414V7.336C18.8209 7.3936 18.7046 7.4608 18.5918 7.5384L16.3404 9.0864C16.314 9.00374 16.2597 8.93121 16.1853 8.8796C16.111 8.82799 16.0208 8.80007 15.928 8.8H4.73535C4.62118 8.8 4.51168 8.84214 4.43095 8.91716C4.35022 8.99217 4.30486 9.09391 4.30486 9.2C4.30486 9.30609 4.35022 9.40783 4.43095 9.48284C4.51168 9.55786 4.62118 9.6 4.73535 9.6H15.5931L13.2659 11.2H4.73535C4.62118 11.2 4.51168 11.2421 4.43095 11.3172C4.35022 11.3922 4.30486 11.4939 4.30486 11.6C4.30486 11.7061 4.35022 11.8078 4.43095 11.8828C4.51168 11.9579 4.62118 12 4.73535 12H12.1027L9.77548 13.6H4.73535C4.62118 13.6 4.51168 13.6421 4.43095 13.7172C4.35022 13.7922 4.30486 13.8939 4.30486 14C4.30486 14.1061 4.35022 14.2078 4.43095 14.2828C4.51168 14.3579 4.62118 14.4 4.73535 14.4H8.61231L6.33331 15.9664C6.31799 15.9771 6.30306 15.9883 6.28854 16H4.73535C4.62118 16 4.51168 16.0421 4.43095 16.1172C4.35022 16.1922 4.30486 16.2939 4.30486 16.4C4.30486 16.5061 4.35022 16.6078 4.43095 16.6828C4.51168 16.7579 4.62118 16.8 4.73535 16.8H5.88302L4.64753 20.5632C4.60824 20.6828 4.59966 20.8092 4.62247 20.9324C4.64528 21.0556 4.69884 21.1722 4.77887 21.2726C4.8589 21.3731 4.96316 21.4548 5.08329 21.5111C5.20342 21.5674 5.33608 21.5967 5.47062 21.5968L10.1819 21.6C10.3666 21.6002 10.5465 21.5453 10.695 21.4432L18.9414 15.7728V21.6C18.9414 21.8122 18.8507 22.0157 18.6892 22.1657C18.5278 22.3157 18.3088 22.4 18.0804 22.4H2.58292C2.35457 22.4 2.13558 22.3157 1.97412 22.1657C1.81265 22.0157 1.72194 21.8122 1.72194 21.6ZM14.2 6.4C14.1443 6.4 14.0891 6.3898 14.0376 6.36998C13.9861 6.35016 13.9393 6.32111 13.8999 6.28448C13.8605 6.24786 13.8292 6.20438 13.8079 6.15653C13.7865 6.10868 13.7756 6.05739 13.7756 6.0056V1.9312L18.5849 6.4H14.2ZM19.1446 13.6432L16.8363 10.736L17.8437 10.0432L20.1562 12.9472L19.1446 13.6432ZM8.24123 16.6456L16.1441 11.212L18.4515 14.1192L10.6321 19.4952L8.24123 16.6456ZM7.56967 17.1456L9.93906 19.972L9.8986 20L7.64802 19.9984L6.92997 19.096L7.56967 17.1456Z" fill="#F13178"/>
</svg>
