<svg width="24" height="24" viewBox="0 0 24 24" fill="none" xmlns="http://www.w3.org/2000/svg">
<path id="Book" d="M14.1818 8.85V6.3C14.7818 5.95 15.3956 5.6875 16.0233 5.5125C16.6509 5.3375 17.3098 5.25 18 5.25C18.4727 5.25 18.9364 5.3 19.3909 5.4C19.8454 5.5 20.2909 5.625 20.7273 5.775V8.175C20.2909 7.95 19.8498 7.781 19.404 7.668C18.9582 7.555 18.4902 7.499 18 7.5C17.3091 7.5 16.6455 7.619 16.0091 7.857C15.3727 8.095 14.7636 8.426 14.1818 8.85ZM14.1818 17.1V14.55C14.7818 14.2 15.3956 13.9375 16.0233 13.7625C16.6509 13.5875 17.3098 13.5 18 13.5C18.4727 13.5 18.9364 13.55 19.3909 13.65C19.8454 13.75 20.2909 13.875 20.7273 14.025V16.425C20.2909 16.2 19.8498 16.031 19.404 15.918C18.9582 15.805 18.4902 15.749 18 15.75C17.3091 15.75 16.6455 15.8625 16.0091 16.0875C15.3727 16.3125 14.7636 16.65 14.1818 17.1ZM14.1818 12.975V10.425C14.7818 10.075 15.3956 9.8125 16.0233 9.6375C16.6509 9.4625 17.3098 9.375 18 9.375C18.4727 9.375 18.9364 9.425 19.3909 9.525C19.8454 9.625 20.2909 9.75 20.7273 9.9V12.3C20.2909 12.075 19.8498 11.906 19.404 11.793C18.9582 11.68 18.4902 11.624 18 11.625C17.3091 11.625 16.6455 11.744 16.0091 11.982C15.3727 12.22 14.7636 12.551 14.1818 12.975ZM6 18C6.85454 18 7.68654 18.1315 8.496 18.3945C9.30545 18.6575 10.1098 19.051 10.9091 19.575V4.8C10.1636 4.2 9.37272 3.75 8.53636 3.45C7.7 3.15 6.85454 3 6 3C5.34545 3 4.69527 3.0875 4.04945 3.2625C3.40364 3.4375 2.78109 3.7 2.18182 4.05V18.9C2.81818 18.6 3.45018 18.375 4.07782 18.225C4.70545 18.075 5.34618 18 6 18ZM13.0909 19.575C13.8909 19.05 14.6953 18.656 15.504 18.393C16.3127 18.13 17.1447 17.999 18 18C18.6545 18 19.2956 18.075 19.9233 18.225C20.5509 18.375 21.1825 18.6 21.8182 18.9V4.05C21.2182 3.7 20.5953 3.4375 19.9494 3.2625C19.3036 3.0875 18.6538 3 18 3C17.1454 3 16.3 3.15 15.4636 3.45C14.6273 3.75 13.8364 4.2 13.0909 4.8V19.575ZM12 24C11.1273 23.05 10.1818 22.3125 9.16363 21.7875C8.14545 21.2625 7.09091 21 6 21C5.23636 21 4.48618 21.1375 3.74945 21.4125C3.01273 21.6875 2.30836 22.075 1.63636 22.575C1.25455 22.85 0.886545 22.8375 0.532364 22.5375C0.178182 22.2375 0.000727272 21.8 0 21.225V3.15C0 2.875 0.0501818 2.6125 0.150545 2.3625C0.250909 2.1125 0.400727 1.925 0.6 1.8C1.43636 1.2 2.30909 0.75 3.21818 0.45C4.12727 0.15 5.05454 0 6 0C7.05454 0 8.08654 0.1875 9.096 0.5625C10.1055 0.9375 11.0735 1.5 12 2.25C12.9273 1.5 13.8956 0.9375 14.9051 0.5625C15.9145 0.1875 16.9462 0 18 0C18.9454 0 19.8727 0.15 20.7818 0.45C21.6909 0.75 22.5636 1.2 23.4 1.8C23.6 1.925 23.7502 2.1125 23.8505 2.3625C23.9509 2.6125 24.0007 2.875 24 3.15V21.225C24 21.8 23.8229 22.2375 23.4687 22.5375C23.1145 22.8375 22.7462 22.85 22.3636 22.575C21.6909 22.075 20.9865 21.6875 20.2505 21.4125C19.5145 21.1375 18.7644 21 18 21C16.9091 21 15.8545 21.2625 14.8364 21.7875C13.8182 22.3125 12.8727 23.05 12 24Z" fill="#F13178"/>
</svg>
