<svg width="25" height="25" viewBox="0 0 25 25" fill="none" xmlns="http://www.w3.org/2000/svg">
<path id="Vector" d="M11.111 17.5928C11.111 17.9612 11.2573 18.3144 11.5178 18.5749C11.7782 18.8354 12.1315 18.9817 12.4998 18.9817C12.8682 18.9817 13.2214 18.8354 13.4819 18.5749C13.7424 18.3144 13.8887 17.9612 13.8887 17.5928C13.8887 17.2245 13.7424 16.8712 13.4819 16.6108C13.2214 16.3503 12.8682 16.204 12.4998 16.204C12.1315 16.204 11.7782 16.3503 11.5178 16.6108C11.2573 16.8712 11.111 17.2245 11.111 17.5928ZM13.1943 14.3522C13.3216 14.3522 13.4257 14.2481 13.4257 14.1207V6.25065C13.4257 6.12333 13.3216 6.01917 13.1943 6.01917H11.8054C11.6781 6.01917 11.5739 6.12333 11.5739 6.25065V14.1207C11.5739 14.2481 11.6781 14.3522 11.8054 14.3522H13.1943ZM24.7682 8.91259H23.0523C22.9771 8.91259 22.9077 8.94731 22.8643 9.00807L19.7827 13.2556L18.3389 11.2649C18.3174 11.2351 18.2892 11.2109 18.2565 11.1943C18.2237 11.1777 18.1875 11.1691 18.1508 11.1695H16.435C16.2469 11.1695 16.1369 11.3836 16.2469 11.5369L19.4066 15.8973C19.4498 15.9565 19.5064 16.0046 19.5718 16.0378C19.6371 16.071 19.7094 16.0883 19.7827 16.0883C19.856 16.0883 19.9283 16.071 19.9936 16.0378C20.059 16.0046 20.1156 15.9565 20.1589 15.8973L24.9562 9.28006C25.0662 9.1267 24.9562 8.91259 24.7682 8.91259ZM23.495 17.7665H21.6374C21.4783 17.7665 21.3307 17.8504 21.2439 17.9835C20.8332 18.6359 20.3498 19.2397 19.803 19.7832C18.863 20.7238 17.7497 21.4735 16.5247 21.9908C15.2546 22.5265 13.8898 22.801 12.5114 22.7981C11.1196 22.7981 9.76839 22.5261 8.49816 21.9908C7.2731 21.4735 6.15983 20.7238 5.21985 19.7832C4.27683 18.8457 3.52591 17.7331 3.00924 16.5078C2.47105 15.2405 2.19907 13.8893 2.19907 12.5004C2.19907 11.1116 2.47105 9.76036 3.00924 8.49304C3.52717 7.26624 4.27079 6.16384 5.21985 5.21769C6.16891 4.27155 7.27133 3.52794 8.49816 3.01002C9.76819 2.47439 11.133 2.19985 12.5114 2.20275C13.9032 2.20275 15.2544 2.47473 16.5247 3.01002C17.7515 3.52794 18.8539 4.27155 19.803 5.21769C20.3527 5.76744 20.833 6.36928 21.2439 7.0174C21.3278 7.15339 21.4783 7.23441 21.6374 7.23441H23.495C23.6686 7.23441 23.7786 7.05212 23.7034 6.89877C21.6664 2.85088 17.4969 0.0587288 12.6648 0.00086041C5.75515 -0.0801553 0.0144953 5.57069 2.79313e-05 12.4773C-0.0144394 19.3897 5.59311 25 12.5114 25C17.4072 25 21.6432 22.1934 23.7005 18.1021C23.7182 18.0669 23.7267 18.0278 23.725 17.9884C23.7234 17.949 23.7118 17.9107 23.6912 17.8771C23.6706 17.8435 23.6418 17.8157 23.6075 17.7963C23.5731 17.7769 23.5344 17.7667 23.495 17.7665Z" fill="#EF2689"/>
</svg>
