<svg width="26" height="26" viewBox="0 0 26 26" fill="none" xmlns="http://www.w3.org/2000/svg">
<g id="Discount">
<path id="Vector" d="M11.0136 1.88771C11.2637 1.60841 11.5699 1.38499 11.9122 1.23202C12.2544 1.07906 12.6251 1 13 1C13.3749 1 13.7456 1.07906 14.0878 1.23202C14.4301 1.38499 14.7363 1.60841 14.9863 1.88771L15.9195 2.93025C16.1862 3.2282 16.5165 3.46235 16.886 3.61535C17.2555 3.76836 17.6546 3.83629 18.0539 3.81414L19.4536 3.73681C19.828 3.71617 20.2026 3.77474 20.5528 3.90869C20.903 4.04263 21.2211 4.24895 21.4862 4.51417C21.7512 4.77938 21.9574 5.09753 22.0912 5.44783C22.225 5.79813 22.2833 6.17272 22.2625 6.54712L22.1852 7.94561C22.1633 8.34467 22.2313 8.74356 22.3843 9.11277C22.5373 9.48199 22.7713 9.8121 23.0691 10.0787L24.1116 11.0119C24.3911 11.262 24.6147 11.5682 24.7678 11.9106C24.9209 12.253 25 12.6239 25 12.999C25 13.374 24.9209 13.7449 24.7678 14.0873C24.6147 14.4297 24.3911 14.7359 24.1116 14.986L23.0691 15.9193C22.7711 16.186 22.537 16.5163 22.384 16.8858C22.231 17.2552 22.163 17.6544 22.1852 18.0536L22.2625 19.4535C22.2832 19.8279 22.2246 20.2024 22.0907 20.5527C21.9567 20.9029 21.7504 21.221 21.4852 21.4861C21.22 21.7511 20.9019 21.9573 20.5516 22.0911C20.2013 22.2249 19.8267 22.2833 19.4523 22.2624L18.0539 22.1851C17.6548 22.1632 17.2559 22.2312 16.8867 22.3842C16.5175 22.5372 16.1874 22.7712 15.9209 23.069L14.9877 24.1115C14.7376 24.3911 14.4314 24.6147 14.089 24.7678C13.7466 24.9209 13.3757 25 13.0007 25C12.6256 25 12.2548 24.9209 11.9124 24.7678C11.57 24.6147 11.2637 24.3911 11.0136 24.1115L10.0805 23.069C9.81376 22.771 9.48345 22.5369 9.11399 22.3839C8.74454 22.2309 8.3454 22.163 7.94613 22.1851L6.54636 22.2624C6.17196 22.2831 5.79741 22.2245 5.44718 22.0906C5.09696 21.9566 4.77892 21.7503 4.51384 21.4851C4.24876 21.2199 4.0426 20.9017 3.90882 20.5514C3.77504 20.2011 3.71665 19.8265 3.73747 19.4521L3.81479 18.0536C3.83675 17.6546 3.76871 17.2557 3.61572 16.8865C3.46273 16.5173 3.2287 16.1872 2.93093 15.9206L1.88843 14.9874C1.60892 14.7373 1.38531 14.431 1.23222 14.0886C1.07913 13.7462 1 13.3754 1 13.0003C1 12.6252 1.07913 12.2544 1.23222 11.912C1.38531 11.5696 1.60892 11.2633 1.88843 11.0132L2.93093 10.08C3.22888 9.81329 3.46302 9.48297 3.61602 9.1135C3.76901 8.74403 3.83695 8.34488 3.81479 7.94561L3.73747 6.54579C3.71703 6.17148 3.77574 5.79707 3.90977 5.44699C4.0438 5.09691 4.25014 4.77903 4.51532 4.51409C4.78051 4.24915 5.09858 4.0431 5.44877 3.9094C5.79897 3.7757 6.17342 3.71734 6.54769 3.73814L7.94613 3.81547C8.34518 3.83742 8.74406 3.76939 9.11327 3.61639C9.48247 3.4634 9.81257 3.22936 10.0791 2.93158L11.0123 1.88905L11.0136 1.88771Z" stroke="#F13178"/>
<path id="Vector_2" d="M9.66699 9.66699H9.68032V9.68032H9.66699V9.66699ZM16.3326 16.3328H16.3459V16.3461H16.3326V16.3328Z" stroke="#F13178" stroke-width="1.5" stroke-linejoin="round"/>
<path id="Vector_3" d="M16.9987 9L9 16.999" stroke="#F13178" stroke-linecap="round" stroke-linejoin="round"/>
</g>
</svg>
