<svg width="24" height="24" viewBox="0 0 24 24" fill="none" xmlns="http://www.w3.org/2000/svg">
<path id="Leave Man" d="M24 18.7603V20.3237H16.4297L18.9023 22.9008L17.8477 24L13.5703 19.542L17.8477 15.084L18.9023 16.1832L16.4297 18.7603H24ZM15.1406 13.4718L14.1094 14.6076C13.4141 13.9237 12.6289 13.4025 11.7539 13.0443C10.8789 12.686 9.96094 12.5069 9 12.5069C8.3125 12.5069 7.64844 12.6005 7.00781 12.7878C6.36719 12.9751 5.76953 13.2356 5.21484 13.5695C4.66016 13.9033 4.15625 14.3104 3.70312 14.7908C3.25 15.2712 2.85938 15.8005 2.53125 16.3786C2.20312 16.9567 1.94922 17.5796 1.76953 18.2473C1.58984 18.915 1.5 19.6071 1.5 20.3237H0C0 19.371 0.136719 18.4387 0.410156 17.5267C0.683594 16.6148 1.07812 15.772 1.59375 14.9985C2.10938 14.2249 2.72266 13.5369 3.43359 12.9344C4.14453 12.3318 4.9375 11.8718 5.8125 11.5542C5.375 11.2611 4.98438 10.9232 4.64062 10.5405C4.29688 10.1578 4 9.73842 3.75 9.28244C3.5 8.82646 3.31641 8.34606 3.19922 7.84122C3.08203 7.33639 3.01562 6.80712 3 6.25344C3 5.39033 3.15625 4.58015 3.46875 3.8229C3.78125 3.06565 4.20703 2.40204 4.74609 1.83206C5.28516 1.26209 5.92188 0.814249 6.65625 0.48855C7.39062 0.16285 8.17188 0 9 0C9.82812 0 10.6055 0.16285 11.332 0.48855C12.0586 0.814249 12.6953 1.25802 13.2422 1.81985C13.7891 2.38168 14.2188 3.04529 14.5312 3.81069C14.8438 4.57608 15 5.39033 15 6.25344C15 7.36896 14.7539 8.37863 14.2617 9.28244C13.7695 10.1863 13.0781 10.9435 12.1875 11.5542C12.7344 11.7659 13.2539 12.0346 13.7461 12.3603C14.2383 12.686 14.7031 13.0565 15.1406 13.4718ZM4.5 6.25344C4.5 6.90483 4.61719 7.51145 4.85156 8.07328C5.08594 8.63511 5.40625 9.13181 5.8125 9.56336C6.21875 9.99491 6.69531 10.3328 7.24219 10.5771C7.78906 10.8214 8.375 10.9435 9 10.9435C9.61719 10.9435 10.1992 10.8214 10.7461 10.5771C11.293 10.3328 11.7695 9.99898 12.1758 9.57557C12.582 9.15216 12.9062 8.65547 13.1484 8.0855C13.3906 7.51552 13.5078 6.90483 13.5 6.25344C13.5 5.61018 13.3828 5.00356 13.1484 4.43359C12.9141 3.86361 12.5938 3.36692 12.1875 2.94351C11.7812 2.5201 11.3008 2.18219 10.7461 1.92977C10.1914 1.67735 9.60938 1.55522 9 1.56336C8.375 1.56336 7.79297 1.6855 7.25391 1.92977C6.71484 2.17405 6.23828 2.50789 5.82422 2.9313C5.41016 3.35471 5.08594 3.85547 4.85156 4.43359C4.61719 5.0117 4.5 5.61832 4.5 6.25344Z" fill="#F13178"/>
</svg>
