<svg width="16" height="20" viewBox="0 0 16 20" fill="none" xmlns="http://www.w3.org/2000/svg">
<g id="memo pad">
<path id="Vector" d="M13.38 0.0654297H2.5C1.83753 0.0672769 1.20271 0.331262 0.734273 0.799703C0.265832 1.26814 0.00184718 1.90296 0 2.56543V17.4354C0.00184718 18.0979 0.265832 18.7327 0.734273 19.2012C1.20271 19.6696 1.83753 19.9336 2.5 19.9354H13.38C14.043 19.9354 14.6789 19.672 15.1478 19.2032C15.6166 18.7344 15.88 18.0985 15.88 17.4354V2.56543C15.88 1.90239 15.6166 1.2665 15.1478 0.797663C14.6789 0.328822 14.043 0.0654297 13.38 0.0654297ZM14.88 17.4354C14.88 17.8333 14.722 18.2148 14.4407 18.4961C14.1594 18.7774 13.7778 18.9354 13.38 18.9354H2.5C2.10218 18.9354 1.72064 18.7774 1.43934 18.4961C1.15804 18.2148 1 17.8333 1 17.4354V4.50543H14.88V17.4354Z" fill="#F13178"/>
<path id="Vector_2" d="M3.48926 7.50586C3.35665 7.50586 3.22947 7.45318 3.1357 7.35941C3.04194 7.26564 2.98926 7.13847 2.98926 7.00586C2.98926 6.87325 3.04194 6.74607 3.1357 6.65231C3.22947 6.55854 3.35665 6.50586 3.48926 6.50586H12.3983C12.5309 6.50586 12.658 6.55854 12.7518 6.65231C12.8456 6.74607 12.8983 6.87325 12.8983 7.00586C12.8983 7.13847 12.8456 7.26564 12.7518 7.35941C12.658 7.45318 12.5309 7.50586 12.3983 7.50586H3.48926ZM3.48926 10.5059C3.35665 10.5059 3.22947 10.4532 3.1357 10.3594C3.04194 10.2656 2.98926 10.1385 2.98926 10.0059C2.98926 9.87325 3.04194 9.74607 3.1357 9.65231C3.22947 9.55854 3.35665 9.50586 3.48926 9.50586H9.98926C10.1219 9.50586 10.249 9.55854 10.3428 9.65231C10.4366 9.74607 10.4893 9.87325 10.4893 10.0059C10.4893 10.1385 10.4366 10.2656 10.3428 10.3594C10.249 10.4532 10.1219 10.5059 9.98926 10.5059H3.48926ZM3.50626 16.3739C3.37365 16.3739 3.24647 16.3212 3.1527 16.2274C3.05894 16.1336 3.00626 16.0065 3.00626 15.8739C3.00626 15.7413 3.05894 15.6141 3.1527 15.5203C3.24647 15.4265 3.37365 15.3739 3.50626 15.3739H6.75726C6.88987 15.3739 7.01704 15.4265 7.11081 15.5203C7.20458 15.6141 7.25726 15.7413 7.25726 15.8739C7.25726 16.0065 7.20458 16.1336 7.11081 16.2274C7.01704 16.3212 6.88987 16.3739 6.75726 16.3739H3.50626Z" fill="#F13178"/>
</g>
</svg>
