<svg width="24" height="24" viewBox="0 0 24 24" fill="none" xmlns="http://www.w3.org/2000/svg">
<path id="Office" d="M12.1805 0.31802L20.6609 9.34229H17.5586L11.4783 2.87213L5.21739 9.53528V21.557H10.4348V24H4.17391C3.89717 24 3.63175 23.8713 3.43606 23.6422C3.24037 23.4132 3.13043 23.1025 3.13043 22.7785V11.7852H0L10.776 0.31802C10.9681 0.113396 11.2185 0 11.4783 0C11.738 0 11.9884 0.113396 12.1805 0.31802ZM13.5652 11.7852H22.9565V20.3356H13.5652V11.7852ZM15.6522 14.2282V17.8926H20.8696V14.2282H15.6522ZM24 24H12.5217V21.557H24V24Z" fill="#F13178"/>
</svg>
