<svg width="24" height="24" viewBox="0 0 24 24" fill="none" xmlns="http://www.w3.org/2000/svg">
<g id="Schhol">
<path id="Vector" d="M22.8 10.6667H20.4V2.66667H21.6V0H2.4V2.66667H3.6V10.6667H1.2C0.88174 10.6667 0.576515 10.8071 0.351472 11.0572C0.126428 11.3072 0 11.6464 0 12V24H24V12C24 11.6464 23.8736 11.3072 23.6485 11.0572C23.4235 10.8071 23.1183 10.6667 22.8 10.6667ZM14.4 21.3333V16H9.6V21.3333H6V2.66667H18V21.3333H14.4Z" fill="#F13178"/>
<path id="Vector_2" d="M8.40039 5.33301H10.8004V7.99967H8.40039V5.33301ZM13.2004 5.33301H15.6004V7.99967H13.2004V5.33301ZM8.40039 10.6663H10.8004V13.333H8.40039V10.6663ZM13.2004 10.6663H15.6004V13.333H13.2004V10.6663Z" fill="#F13178"/>
</g>
</svg>
