<svg width="24" height="20" viewBox="0 0 24 20" fill="none" xmlns="http://www.w3.org/2000/svg">
<path id="Student" d="M23.3686 3.2395L12.2918 0.0410395C12.1023 -0.0136798 11.8975 -0.0136798 11.708 0.0410395L0.631148 3.2395C0.447348 3.29257 0.287487 3.3944 0.17421 3.53056C0.0609337 3.66672 -1.43563e-05 3.8303 2.53655e-09 3.99813V11.9943C2.53655e-09 12.2063 0.0972516 12.4097 0.270361 12.5597C0.44347 12.7096 0.678256 12.7939 0.923069 12.7939C1.16788 12.7939 1.40267 12.7096 1.57578 12.5597C1.74889 12.4097 1.84614 12.2063 1.84614 11.9943V5.1076L5.72187 6.22606C4.69214 7.66716 4.36469 9.40336 4.81142 11.0534C5.25815 12.7035 6.44255 14.1326 8.10455 15.0268C6.02764 15.7325 4.23227 17.0089 2.91921 18.754C2.85092 18.8419 2.80348 18.9407 2.77966 19.0447C2.75584 19.1486 2.75611 19.2556 2.78045 19.3595C2.80479 19.4633 2.85271 19.562 2.92144 19.6496C2.99016 19.7373 3.07832 19.8122 3.18078 19.8701C3.28325 19.928 3.39797 19.9677 3.51829 19.9868C3.6386 20.006 3.76211 20.0042 3.88164 19.9817C4.00116 19.9591 4.11432 19.9162 4.21452 19.8554C4.31473 19.7946 4.39999 19.7172 4.46535 19.6276C6.20418 17.3167 8.95031 15.9923 11.9999 15.9923C15.0495 15.9923 17.7956 17.3167 19.5344 19.6276C19.6698 19.8019 19.879 19.923 20.1166 19.9648C20.3543 20.0066 20.6014 19.9657 20.8046 19.851C21.0077 19.7362 21.1505 19.5568 21.2022 19.3515C21.2538 19.1462 21.2102 18.9316 21.0806 18.754C19.7675 17.0089 17.9652 15.7325 15.8952 15.0268C17.5557 14.1326 18.7389 12.7045 19.1856 11.0556C19.6322 9.40675 19.3058 7.67174 18.2779 6.23105L23.3686 4.76176C23.5525 4.70872 23.7124 4.6069 23.8257 4.47074C23.939 4.33458 24 4.17098 24 4.00313C24 3.83527 23.939 3.67168 23.8257 3.53552C23.7124 3.39936 23.5525 3.29754 23.3686 3.24449V3.2395ZM17.5383 9.59543C17.5386 10.3539 17.3312 11.1017 16.9333 11.7773C16.5353 12.4529 15.9581 13.0372 15.249 13.4821C14.5399 13.9271 13.7192 14.2201 12.854 14.3371C11.9889 14.4541 11.1041 14.3917 10.2722 14.1551C9.4403 13.9185 8.68501 13.5144 8.0683 12.9759C7.4516 12.4375 6.99105 11.7801 6.72445 11.0576C6.45785 10.3351 6.39279 9.56818 6.53462 8.8197C6.67644 8.07123 7.0211 7.36255 7.54032 6.7518L11.708 7.95122C11.8975 8.00594 12.1023 8.00594 12.2918 7.95122L16.4595 6.7518C17.1608 7.5754 17.5389 8.57202 17.5383 9.59543ZM11.9999 6.35399L3.84227 3.99813L11.9999 1.64227L20.1575 3.99813L11.9999 6.35399Z" fill="#F13178"/>
</svg>
